<mxfile host="app.diagrams.net" agent="Mozilla/5.0 (Windows NT 10.0; Win64; x64) AppleWebKit/537.36 (KHTML, like Gecko) Chrome/132.0.0.0 Safari/537.36 Edg/132.0.0.0" version="26.0.8">
  <diagram name="Page-1" id="W0Lm02oLrqZboVxZn0hC">
    <mxGraphModel dx="1026" dy="725" grid="1" gridSize="10" guides="1" tooltips="1" connect="1" arrows="1" fold="1" page="1" pageScale="1" pageWidth="827" pageHeight="1169" math="0" shadow="0">
      <root>
        <mxCell id="0" />
        <mxCell id="1" parent="0" />
        <mxCell id="A1wWBjNQIWdNoJpYyP1X-2" value="" style="rounded=0;whiteSpace=wrap;html=1;" parent="1" vertex="1">
          <mxGeometry x="110" y="110" width="610" height="440" as="geometry" />
        </mxCell>
        <mxCell id="A1wWBjNQIWdNoJpYyP1X-6" value="&lt;b&gt;UC : Système traitement&lt;/b&gt;" style="shape=partialRectangle;whiteSpace=wrap;html=1;top=0;left=0;fillColor=none;" parent="1" vertex="1">
          <mxGeometry x="110" y="110" width="160" height="30" as="geometry" />
        </mxCell>
        <mxCell id="A1wWBjNQIWdNoJpYyP1X-20" value="IHM" style="shape=umlActor;verticalLabelPosition=bottom;verticalAlign=top;html=1;outlineConnect=0;" parent="1" vertex="1">
          <mxGeometry x="30" y="170" width="30" height="60" as="geometry" />
        </mxCell>
        <mxCell id="A1wWBjNQIWdNoJpYyP1X-22" value="" style="endArrow=none;html=1;rounded=0;exitX=0;exitY=0.5;exitDx=0;exitDy=0;entryX=0.5;entryY=0.5;entryDx=0;entryDy=0;entryPerimeter=0;" parent="1" source="LxLnO4f0MvggGV8PWpyp-1" target="A1wWBjNQIWdNoJpYyP1X-20" edge="1">
          <mxGeometry width="50" height="50" relative="1" as="geometry">
            <mxPoint x="20" y="480" as="sourcePoint" />
            <mxPoint x="410" y="270" as="targetPoint" />
          </mxGeometry>
        </mxCell>
        <mxCell id="A1wWBjNQIWdNoJpYyP1X-25" value="Envoyer les données&amp;nbsp; brutes" style="shape=ellipse;html=1;strokeWidth=3;fontStyle=1;whiteSpace=wrap;align=center;perimeter=ellipsePerimeter;" parent="1" vertex="1">
          <mxGeometry x="150" y="391" width="130" height="67" as="geometry" />
        </mxCell>
        <mxCell id="A1wWBjNQIWdNoJpYyP1X-26" value="" style="edgeStyle=none;html=1;endArrow=none;verticalAlign=bottom;rounded=0;exitX=0.5;exitY=0.5;exitDx=0;exitDy=0;exitPerimeter=0;entryX=0;entryY=0.5;entryDx=0;entryDy=0;" parent="1" source="ZLsyZE4Ogy_-Gi288YGF-1" target="A1wWBjNQIWdNoJpYyP1X-25" edge="1">
          <mxGeometry width="160" relative="1" as="geometry">
            <mxPoint x="45" y="284.5" as="sourcePoint" />
            <mxPoint x="130" y="284.5" as="targetPoint" />
          </mxGeometry>
        </mxCell>
        <mxCell id="A1wWBjNQIWdNoJpYyP1X-32" value="Traiter les données météorologique" style="shape=ellipse;html=1;strokeWidth=3;fontStyle=1;whiteSpace=wrap;align=center;perimeter=ellipsePerimeter;" parent="1" vertex="1">
          <mxGeometry x="320" y="370" width="130" height="70" as="geometry" />
        </mxCell>
        <mxCell id="A1wWBjNQIWdNoJpYyP1X-33" value="Traiter les données archivés" style="shape=ellipse;html=1;strokeWidth=3;fontStyle=1;whiteSpace=wrap;align=center;perimeter=ellipsePerimeter;" parent="1" vertex="1">
          <mxGeometry x="410" y="476.5" width="130" height="60" as="geometry" />
        </mxCell>
        <mxCell id="A1wWBjNQIWdNoJpYyP1X-34" value="Traiter les données du terrain" style="shape=ellipse;html=1;strokeWidth=3;fontStyle=1;whiteSpace=wrap;align=center;perimeter=ellipsePerimeter;" parent="1" vertex="1">
          <mxGeometry x="510" y="380" width="120" height="60" as="geometry" />
        </mxCell>
        <mxCell id="A1wWBjNQIWdNoJpYyP1X-37" value="&amp;lt;&amp;lt;include&amp;gt;&amp;gt;" style="edgeStyle=none;html=1;endArrow=open;verticalAlign=bottom;dashed=1;labelBackgroundColor=none;rounded=0;exitX=1;exitY=0.5;exitDx=0;exitDy=0;entryX=0;entryY=0.5;entryDx=0;entryDy=0;" parent="1" source="LxLnO4f0MvggGV8PWpyp-4" target="A1wWBjNQIWdNoJpYyP1X-33" edge="1">
          <mxGeometry width="160" relative="1" as="geometry">
            <mxPoint x="260" y="447.5" as="sourcePoint" />
            <mxPoint x="460" y="300" as="targetPoint" />
          </mxGeometry>
        </mxCell>
        <mxCell id="A1wWBjNQIWdNoJpYyP1X-39" value="&amp;lt;&amp;lt;include&amp;gt;&amp;gt;" style="edgeStyle=none;html=1;endArrow=open;verticalAlign=bottom;dashed=1;labelBackgroundColor=none;rounded=0;entryX=0.5;entryY=1;entryDx=0;entryDy=0;exitX=0;exitY=0;exitDx=0;exitDy=0;" parent="1" source="A1wWBjNQIWdNoJpYyP1X-33" target="A1wWBjNQIWdNoJpYyP1X-32" edge="1">
          <mxGeometry width="160" relative="1" as="geometry">
            <mxPoint x="300" y="300" as="sourcePoint" />
            <mxPoint x="460" y="300" as="targetPoint" />
          </mxGeometry>
        </mxCell>
        <mxCell id="A1wWBjNQIWdNoJpYyP1X-40" value="&amp;lt;&amp;lt;include&amp;gt;&amp;gt;" style="edgeStyle=none;html=1;endArrow=open;verticalAlign=bottom;dashed=1;labelBackgroundColor=none;rounded=0;entryX=0.354;entryY=0.972;entryDx=0;entryDy=0;exitX=1;exitY=0;exitDx=0;exitDy=0;entryPerimeter=0;" parent="1" source="A1wWBjNQIWdNoJpYyP1X-33" target="A1wWBjNQIWdNoJpYyP1X-34" edge="1">
          <mxGeometry width="160" relative="1" as="geometry">
            <mxPoint x="300" y="300" as="sourcePoint" />
            <mxPoint x="460" y="300" as="targetPoint" />
          </mxGeometry>
        </mxCell>
        <mxCell id="ZLsyZE4Ogy_-Gi288YGF-1" value="BDD" style="shape=umlActor;verticalLabelPosition=bottom;verticalAlign=top;html=1;outlineConnect=0;" parent="1" vertex="1">
          <mxGeometry x="30" y="394.5" width="30" height="60" as="geometry" />
        </mxCell>
        <mxCell id="K7xr2IebgNkj62s64Rl6-2" value="Recevoir les données&amp;nbsp; brutes" style="shape=ellipse;html=1;strokeWidth=3;fontStyle=1;whiteSpace=wrap;align=center;perimeter=ellipsePerimeter;" parent="1" vertex="1">
          <mxGeometry x="150" y="306.5" width="130" height="70" as="geometry" />
        </mxCell>
        <mxCell id="K7xr2IebgNkj62s64Rl6-10" value="" style="edgeStyle=none;html=1;endArrow=none;verticalAlign=bottom;rounded=0;exitX=0.5;exitY=0.5;exitDx=0;exitDy=0;exitPerimeter=0;entryX=0;entryY=0.5;entryDx=0;entryDy=0;" parent="1" source="ZLsyZE4Ogy_-Gi288YGF-1" target="K7xr2IebgNkj62s64Rl6-2" edge="1">
          <mxGeometry width="160" relative="1" as="geometry">
            <mxPoint x="330" y="370" as="sourcePoint" />
            <mxPoint x="490" y="370" as="targetPoint" />
          </mxGeometry>
        </mxCell>
        <mxCell id="K7xr2IebgNkj62s64Rl6-11" value="" style="edgeStyle=none;html=1;endArrow=none;verticalAlign=bottom;rounded=0;exitX=0.5;exitY=0.5;exitDx=0;exitDy=0;exitPerimeter=0;entryX=0;entryY=0.5;entryDx=0;entryDy=0;" parent="1" source="ZLsyZE4Ogy_-Gi288YGF-1" target="LxLnO4f0MvggGV8PWpyp-4" edge="1">
          <mxGeometry width="160" relative="1" as="geometry">
            <mxPoint x="330" y="370" as="sourcePoint" />
            <mxPoint x="135" y="447.5" as="targetPoint" />
          </mxGeometry>
        </mxCell>
        <mxCell id="LxLnO4f0MvggGV8PWpyp-1" value="Recevoir les données&amp;nbsp; traitées" style="shape=ellipse;html=1;strokeWidth=3;fontStyle=1;whiteSpace=wrap;align=center;perimeter=ellipsePerimeter;" vertex="1" parent="1">
          <mxGeometry x="150" y="165" width="130" height="70" as="geometry" />
        </mxCell>
        <mxCell id="LxLnO4f0MvggGV8PWpyp-3" value="" style="edgeStyle=none;html=1;endArrow=block;endFill=0;endSize=12;verticalAlign=bottom;rounded=0;exitX=0.5;exitY=0;exitDx=0;exitDy=0;exitPerimeter=0;" edge="1" parent="1" source="ZLsyZE4Ogy_-Gi288YGF-1" target="A1wWBjNQIWdNoJpYyP1X-20">
          <mxGeometry width="160" relative="1" as="geometry">
            <mxPoint x="330" y="370" as="sourcePoint" />
            <mxPoint x="490" y="370" as="targetPoint" />
          </mxGeometry>
        </mxCell>
        <mxCell id="LxLnO4f0MvggGV8PWpyp-4" value="Envoyer les données&amp;nbsp; Traitées" style="shape=ellipse;html=1;strokeWidth=3;fontStyle=1;whiteSpace=wrap;align=center;perimeter=ellipsePerimeter;" vertex="1" parent="1">
          <mxGeometry x="150" y="473" width="130" height="67" as="geometry" />
        </mxCell>
      </root>
    </mxGraphModel>
  </diagram>
</mxfile>
